
<!-- Generator: visioncortex VTracer 0.6.4 -->
<svg version="1.1" xmlns="http://www.w3.org/2000/svg" viewBox="0 0 500 500" preserveAspectRatio="xMidYMid meet">
<path d="M0 0 C3.01 0.003 6.019 -0.02 9.029 -0.046 C63.934 -0.222 116.877 20.566 159.323 54.98 C160.971 56.312 162.632 57.628 164.296 58.941 C165.808 60.147 165.808 60.147 167.351 61.378 C168.245 62.091 169.14 62.804 170.062 63.538 C171.009 64.418 171.009 64.418 171.976 65.316 C171.976 65.976 171.976 66.636 171.976 67.316 C172.636 67.316 173.296 67.316 173.976 67.316 C173.976 67.976 173.976 68.636 173.976 69.316 C174.636 69.316 175.296 69.316 175.976 69.316 C175.976 69.976 175.976 70.636 175.976 71.316 C176.966 71.646 177.956 71.976 178.976 72.316 C178.976 72.976 178.976 73.636 178.976 74.316 C179.636 74.316 180.296 74.316 180.976 74.316 C180.976 74.976 180.976 75.636 180.976 76.316 C181.636 76.316 182.296 76.316 182.976 76.316 C182.976 76.976 182.976 77.636 182.976 78.316 C183.636 78.316 184.296 78.316 184.976 78.316 C186.718 80.195 186.718 80.195 188.851 82.878 C190.055 84.388 190.055 84.388 191.284 85.929 C191.936 86.752 191.936 86.752 192.6 87.592 C194.012 89.361 195.446 91.111 196.886 92.859 C224.373 126.371 240.497 165.851 247.976 208.316 C248.238 209.799 248.238 209.799 248.506 211.313 C249.757 218.857 250.307 226.174 250.347 233.816 C250.358 234.962 250.369 236.109 250.381 237.29 C250.408 240.965 250.415 244.64 250.413 248.316 C250.414 249.572 250.414 250.828 250.415 252.122 C250.38 270.735 249.705 288.235 244.976 306.316 C244.686 307.478 244.397 308.64 244.099 309.837 C236.526 339.859 224.268 366.713 206.976 392.316 C206.101 393.632 205.226 394.948 204.351 396.265 C199.873 402.918 199.873 402.918 197.976 405.316 C197.316 405.316 196.656 405.316 195.976 405.316 C195.722 405.876 195.468 406.437 195.206 407.015 C191.589 413.778 185.959 419.601 180.421 424.843 C178.746 426.458 178.746 426.458 176.976 429.316 C176.316 429.316 175.656 429.316 174.976 429.316 C174.976 429.976 174.976 430.636 174.976 431.316 C174.316 431.316 173.656 431.316 172.976 431.316 C172.976 431.976 172.976 432.636 172.976 433.316 C171.542 434.761 171.542 434.761 169.538 436.441 C166.603 438.926 163.738 441.456 160.913 444.066 C149.921 453.816 137.564 461.804 124.976 469.316 C124.33 469.705 123.685 470.094 123.02 470.495 C92.315 488.897 54.954 500.644 19.066 500.616 C17.778 500.621 16.489 500.625 15.162 500.629 C12.452 500.637 9.742 500.637 7.032 500.631 C4.298 500.627 1.566 500.634 -1.167 500.652 C-17.033 500.757 -32.424 500.413 -48.024 497.316 C-49.093 497.112 -49.093 497.112 -50.184 496.905 C-91.218 489.059 -128.916 467.671 -160.024 440.316 C-160.747 439.703 -161.47 439.091 -162.216 438.46 C-166.315 434.974 -170.191 431.277 -174.024 427.503 C-174.518 427.022 -175.012 426.542 -175.521 426.046 C-176.728 424.841 -177.881 423.582 -179.024 422.316 C-179.024 421.656 -179.024 420.996 -179.024 420.316 C-179.684 420.316 -180.344 420.316 -181.024 420.316 C-184.251 416.846 -187.097 413.04 -190.024 409.316 C-191.244 407.782 -191.244 407.782 -192.489 406.218 C-206.071 388.997 -217.239 370.41 -226.024 350.316 C-226.526 349.184 -227.027 348.052 -227.544 346.886 C-240.69 315.738 -246.271 282.345 -246.212 248.691 C-246.211 247.992 -246.21 247.292 -246.209 246.572 C-246.055 193.151 -229.205 142.718 -197.23 99.936 C-195.962 98.232 -194.717 96.514 -193.473 94.792 C-192.658 93.675 -191.841 92.557 -191.024 91.441 C-189.941 89.96 -189.941 89.96 -188.837 88.448 C-188.239 87.745 -187.64 87.041 -187.024 86.316 C-186.364 86.316 -185.704 86.316 -185.024 86.316 C-184.797 85.779 -184.57 85.243 -184.337 84.691 C-182.568 81.491 -180.487 79.025 -178.024 76.316 C-177.364 76.316 -176.704 76.316 -176.024 76.316 C-176.024 75.656 -176.024 74.996 -176.024 74.316 C-175.364 74.316 -174.704 74.316 -174.024 74.316 C-174.024 73.656 -174.024 72.996 -174.024 72.316 C-173.364 72.316 -172.704 72.316 -172.024 72.316 C-172.024 71.656 -172.024 70.996 -172.024 70.316 C-171.364 70.316 -170.704 70.316 -170.024 70.316 C-170.024 69.656 -170.024 68.996 -170.024 68.316 C-169.364 68.316 -168.704 68.316 -168.024 68.316 C-167.818 67.768 -167.612 67.22 -167.399 66.656 C-165.5 63.424 -162.861 61.26 -160.024 58.878 C-159.41 58.359 -158.795 57.84 -158.162 57.304 C-145.335 46.627 -131.668 37.309 -117.024 29.316 C-116.378 28.962 -115.732 28.608 -115.066 28.243 C-103.821 22.164 -92.06 17.578 -80.024 13.316 C-79.237 13.034 -78.449 12.753 -77.638 12.464 C-52.569 3.646 -26.481 -0.058 0 0 Z M25.976 99.316 C23.527 104.213 25.133 111.336 25.851 116.562 C28.558 137.806 29.402 158.933 29.411 180.328 C29.413 182.402 29.421 184.477 29.431 186.551 C29.592 230.129 22.455 272.005 11.413 314.066 C11.23 314.769 11.046 315.473 10.857 316.198 C8.579 324.89 6.022 333.426 3.121 341.932 C2.146 344.814 1.228 347.7 0.351 350.613 C0.119 351.363 -0.113 352.113 -0.352 352.886 C-0.813 354.382 -1.261 355.882 -1.696 357.386 C-2.838 361.002 -3.509 362.887 -6.481 365.363 C-10.274 366.784 -12.405 365.955 -16.024 364.316 C-17.781 360.914 -18.335 357.819 -18.63 354.031 C-18.722 352.966 -18.814 351.902 -18.909 350.805 C-19.009 349.633 -19.109 348.461 -19.212 347.253 C-22.546 312.668 -29.057 278.864 -38.024 245.316 C-38.226 244.556 -38.428 243.795 -38.636 243.012 C-41.504 232.252 -44.78 221.699 -48.462 211.191 C-48.95 209.785 -49.439 208.38 -49.927 206.974 C-51.283 203.084 -52.651 199.199 -54.024 195.316 C-54.346 194.403 -54.668 193.491 -54.999 192.551 C-58.443 182.856 -62.502 173.547 -67.024 164.316 C-67.325 163.698 -67.627 163.08 -67.937 162.444 C-70.254 157.711 -72.631 153.01 -75.024 148.316 C-75.479 147.418 -75.935 146.52 -76.404 145.595 C-77.872 142.705 -79.353 139.822 -80.837 136.941 C-81.305 136.018 -81.773 135.096 -82.256 134.145 C-82.701 133.286 -83.147 132.427 -83.606 131.542 C-84 130.775 -84.395 130.007 -84.801 129.217 C-86.036 127.019 -86.036 127.019 -89.024 125.316 C-99.238 126.041 -112.358 143.204 -118.712 150.378 C-121.23 152.954 -121.23 152.954 -121.024 155.316 C-121.684 155.316 -122.344 155.316 -123.024 155.316 C-125.314 157.954 -127.191 160.926 -129.149 163.816 C-129.73 164.671 -130.311 165.527 -130.91 166.408 C-134.526 171.831 -137.88 177.318 -140.837 183.128 C-141.167 183.766 -141.498 184.404 -141.839 185.062 C-143.732 188.957 -145.045 192.044 -144.024 196.316 C-141.625 198.719 -138.866 200.476 -136.024 202.316 C-134.603 203.311 -133.185 204.311 -131.77 205.316 C-129.614 206.82 -127.455 208.321 -125.292 209.816 C-121.116 212.734 -117.217 215.777 -113.454 219.214 C-112.061 220.519 -112.061 220.519 -110.024 220.316 C-110.024 220.976 -110.024 221.636 -110.024 222.316 C-108.51 223.886 -108.51 223.886 -106.524 225.503 C-105.801 226.119 -105.078 226.736 -104.333 227.37 C-103.571 228.012 -102.809 228.654 -102.024 229.316 C-100.541 230.582 -99.062 231.853 -97.587 233.128 C-96.599 233.973 -96.599 233.973 -95.591 234.835 C-94.024 236.316 -94.024 236.316 -93.024 238.316 C-92.364 238.316 -91.704 238.316 -91.024 238.316 C-90.797 238.852 -90.57 239.388 -90.337 239.941 C-88.568 243.14 -86.487 245.606 -84.024 248.316 C-83.364 248.316 -82.704 248.316 -82.024 248.316 C-81.784 248.861 -81.545 249.406 -81.298 249.968 C-79.711 252.892 -77.737 255.287 -75.649 257.878 C-45.825 295.881 -28.245 343.606 -25.901 391.685 C-25.83 392.884 -25.758 394.084 -25.684 395.32 C-25.629 396.401 -25.574 397.481 -25.517 398.595 C-24.969 401.623 -24.508 402.56 -22.024 404.316 C-16.703 405.973 -11.408 407.464 -5.939 405.608 C-3.841 404.455 -3.841 404.455 -3.162 402.13 C-2.989 401.223 -2.816 400.316 -2.637 399.382 C-2.426 398.354 -2.215 397.327 -1.998 396.268 C-1.78 395.149 -1.561 394.031 -1.337 392.878 C4.698 364.684 14.826 336.995 31.202 313.062 C33.157 310.58 33.157 310.58 32.976 308.316 C33.636 308.316 34.296 308.316 34.976 308.316 C35.957 306.878 36.857 305.386 37.726 303.878 C45.771 290.872 56.447 279.355 66.976 268.316 C67.806 267.444 68.636 266.573 69.491 265.675 C92.526 242.062 121.989 224.56 151.976 211.316 C151.665 203.975 150.11 198.185 146.976 191.566 C146.372 190.263 146.372 190.263 145.757 188.934 C142.114 181.257 137.853 174.267 132.976 167.316 C132.069 165.993 131.163 164.67 130.257 163.347 C129.353 162.044 128.446 160.741 127.538 159.441 C127.113 158.827 126.688 158.213 126.25 157.58 C125.209 156.121 124.099 154.712 122.976 153.316 C122.316 153.316 121.656 153.316 120.976 153.316 C120.706 152.721 120.436 152.127 120.157 151.514 C118.983 149.33 117.811 147.893 116.07 146.144 C115.209 145.277 115.209 145.277 114.332 144.393 C113.719 143.79 113.107 143.187 112.476 142.566 C111.842 141.94 111.209 141.313 110.556 140.668 C91.074 121.628 58.423 99.145 30.101 99.066 C28.725 99.128 27.349 99.202 25.976 99.316 Z M118.976 324.253 C117.82 324.584 117.82 324.584 116.641 324.921 C91.518 332.378 69.074 344.266 47.62 359.177 C46.084 360.241 44.53 361.279 42.976 362.316 C42.976 362.976 42.976 363.636 42.976 364.316 C42.455 364.54 41.934 364.764 41.398 364.995 C38.077 366.806 35.184 369.102 32.226 371.441 C31.605 371.928 30.985 372.416 30.346 372.919 C26.09 376.311 22.158 379.882 18.429 383.855 C16.976 385.316 16.976 385.316 14.976 386.316 C14.976 386.976 14.976 387.636 14.976 388.316 C14.316 388.316 13.656 388.316 12.976 388.316 C11.19 390.153 11.19 390.153 9.413 392.503 C8.793 393.28 8.173 394.058 7.534 394.859 C5.865 397.49 5.179 399.214 4.976 402.316 C5.817 404.584 5.817 404.584 6.976 406.316 C43.554 407.447 76.793 391.855 104.976 369.316 C105.73 368.719 106.484 368.122 107.261 367.507 C112.971 362.774 117.398 357.12 121.976 351.316 C122.681 350.465 123.386 349.614 124.113 348.738 C133.287 338.222 133.287 338.222 136.976 325.316 C136.105 323.277 136.105 323.277 133.976 322.316 C128.682 321.991 124.033 322.801 118.976 324.253 Z M-126.399 334.003 C-128.261 336.151 -128.261 336.151 -127.923 338.558 C-126.739 342.19 -124.644 344.825 -122.274 347.753 C-121.844 348.3 -121.413 348.848 -120.969 349.411 C-119.668 351.058 -118.347 352.687 -117.024 354.316 C-116.571 354.892 -116.118 355.468 -115.651 356.062 C-114.488 357.518 -113.26 358.922 -112.024 360.316 C-111.364 360.316 -110.704 360.316 -110.024 360.316 C-110.024 360.976 -110.024 361.636 -110.024 362.316 C-107.561 364.863 -104.741 367.045 -102.024 369.316 C-101.226 370.012 -100.428 370.708 -99.606 371.425 C-85.337 383.6 -68.581 392.81 -51.024 399.316 C-50.014 399.728 -49.003 400.141 -47.962 400.566 C-43.955 401.589 -40.135 401.48 -36.024 401.316 C-36.024 400.656 -36.024 399.996 -36.024 399.316 C-35.364 399.316 -34.704 399.316 -34.024 399.316 C-33.388 391.102 -38.44 384.733 -43.42 378.595 C-51.509 369.163 -60.557 360.076 -71.024 353.316 C-71.684 353.316 -72.344 353.316 -73.024 353.316 C-73.024 352.656 -73.024 351.996 -73.024 351.316 C-99.315 335.363 -99.315 335.363 -126.399 334.003 Z " fill="#020202" transform="translate(250.024169921875,-0.315673828125)"/>
<path d="M0 0 C0 3 0 3 -2.111 5.452 C-3.077 6.417 -4.051 7.374 -5.031 8.324 C-5.542 8.83 -6.052 9.337 -6.578 9.858 C-8.212 11.475 -9.856 13.081 -11.5 14.688 C-12.609 15.781 -13.717 16.876 -14.824 17.971 C-17.542 20.655 -20.268 23.33 -23 26 C-23 22.456 -22.39 21.897 -20.125 19.312 C-19.591 18.69 -19.058 18.067 -18.508 17.426 C-17 16 -17 16 -15 16 C-15 15.34 -15 14.68 -15 14 C-14.34 14 -13.68 14 -13 14 C-13 13.34 -13 12.68 -13 12 C-12.34 12 -11.68 12 -11 12 C-11 11.34 -11 10.68 -11 10 C-10.34 10 -9.68 10 -9 10 C-9 9.34 -9 8.68 -9 8 C-8.34 8 -7.68 8 -7 8 C-6.66 7.134 -6.66 7.134 -6.312 6.25 C-4.67 3.434 -2.605 1.919 0 0 Z " fill="#525052" transform="translate(89,60)"/>
</svg>